<svg xmlns="http://www.w3.org/2000/svg">
  <symbol viewBox="0 0 52 52" id="logo">
    <rect width="52" height="52" rx="26" fill="white"/>
    <path d="M12 39.8701V33.633H12.6763L15.5115 38.8782L18.3318 33.633H19.0181V39.8657H18.3168V35.0536L15.747 39.8701H15.2711L12.7063 35.0536V39.8701H12Z" fill="#316DC2"/>
    <path d="M30.2848 40C29.7805 40 29.3264 39.9278 28.9223 39.7834C28.5215 39.6362 28.1892 39.4283 27.9254 39.1597C27.6649 38.8912 27.4946 38.5721 27.4145 38.2025L28.1659 38.0942C28.2861 38.4985 28.5399 38.8161 28.9273 39.0471C29.3147 39.2752 29.7772 39.3893 30.3149 39.3893C30.6689 39.3893 30.9861 39.3416 31.2666 39.2464C31.5472 39.1482 31.7676 39.0096 31.9279 38.8305C32.0882 38.6515 32.1683 38.4393 32.1683 38.1938C32.1683 38.0321 32.1349 37.895 32.0681 37.7824C32.0013 37.6669 31.9128 37.5716 31.8026 37.4965C31.6924 37.4214 31.5722 37.3593 31.442 37.3103C31.3117 37.2583 31.1848 37.2164 31.0613 37.1846L29.2329 36.7125C29.0124 36.6577 28.8087 36.5884 28.6217 36.5046C28.4347 36.418 28.2711 36.3155 28.1308 36.1971C27.9939 36.0758 27.887 35.9343 27.8102 35.7726C27.7334 35.6109 27.695 35.4261 27.695 35.2182C27.695 34.8659 27.8019 34.5613 28.0156 34.3043C28.2293 34.0473 28.5215 33.8495 28.8922 33.7109C29.2629 33.5723 29.6854 33.5045 30.1596 33.5074C30.6405 33.5074 31.0696 33.581 31.447 33.7283C31.8277 33.8755 32.1416 34.0863 32.3887 34.3606C32.6359 34.6321 32.7995 34.954 32.8796 35.3265L32.1082 35.4478C32.0581 35.1764 31.9429 34.941 31.7626 34.7418C31.5822 34.5425 31.3518 34.3895 31.0713 34.2827C30.7941 34.1729 30.4885 34.1166 30.1546 34.1137C29.8306 34.1137 29.5418 34.1614 29.288 34.2567C29.0375 34.3491 28.8388 34.4761 28.6918 34.6378C28.5449 34.7995 28.4714 34.9843 28.4714 35.1922C28.4714 35.403 28.5382 35.5719 28.6718 35.699C28.8087 35.8261 28.9757 35.9257 29.1727 35.9979C29.3731 36.0701 29.5668 36.1292 29.7538 36.1754L31.1665 36.5349C31.3134 36.5696 31.4854 36.6201 31.6824 36.6865C31.8828 36.7501 32.0765 36.8425 32.2635 36.9637C32.4538 37.0821 32.6108 37.2381 32.7344 37.4315C32.8579 37.625 32.9197 37.8704 32.9197 38.1679C32.9197 38.4566 32.8529 38.715 32.7193 38.9432C32.5891 39.1713 32.4038 39.3633 32.1633 39.5192C31.9262 39.6751 31.6473 39.7935 31.3267 39.8744C31.0095 39.9581 30.6622 40 30.2848 40Z" fill="#316DC2"/>
    <path fill-rule="evenodd" clip-rule="evenodd" d="M23.0087 33.633L20.5241 39.8701H21.2905L21.893 38.3584H25.0974L25.7037 39.8701H26.4701L23.9855 33.633H23.0087ZM24.8576 37.7607L23.49 34.3514L22.1312 37.7607H21.6311V38.3584H21.893L22.1312 37.7607H24.8576Z" fill="#316DC2"/>
    <path d="M21.6311 37.7607V38.3584H21.893L22.1312 37.7607H21.6311Z" fill="#316DC2"/>
    <path fill-rule="evenodd" clip-rule="evenodd" d="M36.5386 33.633L34.0539 39.8701H34.8204L35.4229 38.3584H38.6272L39.2336 39.8701H40L37.5154 33.633H36.5386ZM38.3875 37.7607L37.0199 34.3514L35.6611 37.7607H35.161V38.3584H35.4229L35.6611 37.7607H38.3875Z" fill="#316DC2"/>
    <path d="M35.161 37.7607V38.3584H35.4229L35.6611 37.7607H35.161Z" fill="#316DC2"/>
    <path d="M17.8125 17.476C17.2909 17.8535 16.9851 18.6529 17.5615 19.6087C18.1378 20.5646 26.372 27.0165 26.6739 27.1957C26.9758 27.375 27.2779 27.4048 28.0461 26.7775C28.8148 26.1502 35.2362 21.2497 35.4019 21.1023C35.6656 20.8678 35.7313 20.2958 35.4019 20.0268C35.4019 20.0268 27.6225 25.941 27.3677 26.1801C27.1132 26.4191 26.7169 26.0308 26.7913 25.5231C26.866 25.0152 26.921 24.9554 27.9091 24.1788C28.8972 23.4021 34.4993 19.0889 34.7535 18.8982C35.0414 18.6821 35.0483 18.3005 34.5768 17.963C33.9214 17.4938 26.8379 12.3763 26.601 12.1971C26.3634 12.0178 26.0345 11.8549 25.5406 12.2134C25.0466 12.5718 18.7709 16.7823 17.8125 17.476Z" fill="#316DC2"/>
    <path d="M26.6739 27.8252C26.4757 27.7075 22.8629 24.8896 20.2387 22.6955V27.2702C20.2367 30.6096 29.4981 32.3938 32.5663 28.2887V23.9163C30.6815 25.3631 28.4767 27.0556 28.0461 27.407C27.2779 28.0342 26.9758 28.0044 26.6739 27.8252Z" fill="#316DC2"/>
    <path d="M30.593 22.8091C30.593 22.8091 31.97 23.5124 32.068 26.3426L31.4009 26.1558L30.8671 27.3076C30.6413 24.2085 29.4116 23.7591 29.4116 23.7591L30.593 22.8091Z" fill="#98B8E6"/>
  </symbol>
  <symbol viewBox="0 0 12 7" id="arrow-menu">
    <path opacity="" d="M11.4545 0.818359L5.99996 5.72745L0.54541 0.818359" stroke=""/>
  </symbol>
  <symbol viewBox="0 0 10 10" id="arrow-button">
    <path d="M1 9L9 1M9 1H1.05298M9 1V8.94702" stroke=""/>
  </symbol>
  <symbol viewBox="0 0 11 12" id="arrow-control">
    <path d="M0 5.6875H10M10 5.6875L5.03311 11M10 5.6875L5.03311 1" stroke=""/>
  </symbol>
  <symbol viewBox="0 0 18 22" id="star">
    <path d="M9 0L12.0138 5.47476L18 5.5L15.0275 11L18 16.5L12.0138 16.5252L9 22L5.98623 16.5252L0 16.5L2.97246 11L0 5.5L5.98623 5.47476L9 0Z" fill="white"/>
  </symbol>
  <symbol viewBox="0 0 16 10" id="vk">
    <path d="M15.8574 8.42065C15.8144 8.35182 15.5484 7.79922 14.2683 6.66345C12.9282 5.47413 13.1082 5.66725 14.7223 3.6108C15.7054 2.35839 16.0984 1.59355 15.9754 1.26659C15.8584 0.954918 15.1353 1.03714 15.1353 1.03714L12.7312 1.05052C12.7312 1.05052 12.5531 1.02758 12.4201 1.1031C12.2911 1.17768 12.2081 1.34976 12.2081 1.34976C12.2081 1.34976 11.8271 2.31919 11.3191 3.1433C10.248 4.88234 9.81894 4.97412 9.64393 4.86609C9.2369 4.61465 9.33891 3.85459 9.33891 3.31539C9.33891 1.62988 9.60593 0.927192 8.81787 0.745544C8.55585 0.685314 8.36384 0.64516 7.69479 0.638468C6.83672 0.629863 6.10967 0.641336 5.69864 0.8335C5.42462 0.96161 5.21361 1.24747 5.34262 1.26372C5.50163 1.2838 5.86165 1.35646 6.05267 1.60503C6.29969 1.9253 6.29069 2.64616 6.29069 2.64616C6.29069 2.64616 6.4327 4.62994 5.95966 4.8766C5.63464 5.04582 5.1896 4.70069 4.23453 3.12227C3.7455 2.31441 3.37547 1.42051 3.37547 1.42051C3.37547 1.42051 3.30447 1.25416 3.17746 1.16525C3.02345 1.05721 2.80743 1.0228 2.80743 1.0228L0.521262 1.03618C0.521262 1.03618 0.178236 1.04574 0.0522271 1.18819C-0.0597811 1.31535 0.0432264 1.5773 0.0432264 1.5773C0.0432264 1.5773 1.83336 5.58025 3.85951 7.59846C5.71864 9.4484 7.8288 9.32698 7.8288 9.32698H8.78487C8.78487 9.32698 9.07389 9.29639 9.2209 9.14438C9.35691 9.00479 9.35191 8.74284 9.35191 8.74284C9.35191 8.74284 9.33291 7.51624 9.92895 7.33554C10.516 7.15772 11.2701 8.52104 12.0691 9.0459C12.6732 9.44266 13.1322 9.35566 13.1322 9.35566L15.2693 9.32698C15.2693 9.32698 16.3874 9.26101 15.8574 8.42065Z" fill=""/>
  </symbol>
  <symbol viewBox="0 0 16 16" id="reddit">
    <path d="M9.41405 0.363525C8.94762 0.363525 8.50993 0.611969 8.22919 0.97025C7.94845 1.32853 7.79371 1.76527 7.68097 2.22554C7.50191 2.96564 7.44665 3.78681 7.43339 4.52691C6.12252 4.61844 4.93545 5.02641 3.94954 5.65668C3.54942 5.30363 3.06752 5.10749 2.60551 5.11272C2.0794 5.11795 1.57981 5.35593 1.20844 5.84497C0.498845 6.77859 0.580636 8.30587 1.40297 9.21334C1.35212 9.49317 1.31454 9.78084 1.31454 10.0711C1.31454 13.1466 4.30765 15.6363 7.99929 15.6363C11.6909 15.6363 14.684 13.144 14.684 10.0711C14.684 9.78084 14.6465 9.49317 14.5956 9.21334C15.4179 8.30587 15.4997 6.77859 14.7901 5.84497C14.4188 5.35593 13.9192 5.11795 13.3931 5.11272C12.9311 5.10749 12.4492 5.30363 12.049 5.65668C11.0676 5.02903 9.88711 4.62106 8.58288 4.52691C8.60056 3.84435 8.64699 3.13563 8.77741 2.60213C8.8592 2.26739 8.95646 2.02417 9.06036 1.8908C9.16426 1.75742 9.23942 1.7025 9.41405 1.7025C9.79206 1.7025 9.84069 1.83065 10.0684 2.14186C10.1833 2.29877 10.316 2.49491 10.5282 2.68582C10.7404 2.87673 11.0543 3.04148 11.3947 3.04148V1.7025C11.2997 1.7025 11.282 1.69989 11.2179 1.63974C11.1538 1.57959 11.0653 1.44098 10.9349 1.26315C10.6741 0.904871 10.1679 0.363525 9.41405 0.363525ZM13.0924 0.489055C12.2126 0.489055 11.5008 1.33115 11.5008 2.37199C11.5008 3.41284 12.2126 4.25493 13.0924 4.25493C13.9722 4.25493 14.684 3.41284 14.684 2.37199C14.684 1.33115 13.9722 0.489055 13.0924 0.489055ZM13.0924 1.15854C13.6583 1.15854 14.1181 1.7025 14.1181 2.37199C14.1181 3.04148 13.6583 3.58544 13.0924 3.58544C12.5265 3.58544 12.0667 3.04148 12.0667 2.37199C12.0667 1.7025 12.5265 1.15854 13.0924 1.15854ZM7.99929 5.57299C11.1317 5.57299 13.7821 7.63638 13.7821 10.0711C13.7821 12.5085 11.1317 14.5693 7.99929 14.5693C4.86692 14.5693 2.21645 12.5085 2.21645 10.0711C2.21645 7.63638 4.86692 5.57299 7.99929 5.57299ZM2.6232 6.17972C2.78015 6.18233 2.94373 6.22417 3.10068 6.30524C2.53256 6.81521 2.08161 7.40101 1.77434 8.06265C1.56213 7.54485 1.6196 6.89889 1.88045 6.5563C2.07056 6.30524 2.33361 6.1771 2.6232 6.17972ZM13.3754 6.17972C13.665 6.1771 13.928 6.30524 14.1181 6.5563C14.379 6.89889 14.4365 7.54485 14.2242 8.06265C13.917 7.40101 13.466 6.81521 12.8979 6.30524C13.0549 6.22417 13.2184 6.18233 13.3754 6.17972ZM5.73567 7.85344C5.16977 7.85344 4.70997 8.3974 4.70997 9.06689C4.70997 9.73638 5.16977 10.2803 5.73567 10.2803C6.30158 10.2803 6.76137 9.73638 6.76137 9.06689C6.76137 8.3974 6.30158 7.85344 5.73567 7.85344ZM10.2629 7.85344C9.697 7.85344 9.23721 8.3974 9.23721 9.06689C9.23721 9.73638 9.697 10.2803 10.2629 10.2803C10.8288 10.2803 11.2886 9.73638 11.2886 9.06689C11.2886 8.3974 10.8288 7.85344 10.2629 7.85344ZM5.18745 11.975C5.54777 12.8563 6.6619 13.7115 7.99929 13.7115C9.33668 13.7115 10.4685 12.8563 10.8288 11.975C10.1745 12.4745 9.14215 12.8118 7.99929 12.8118C6.85643 12.8118 5.84178 12.4745 5.18745 11.975Z" fill=""/>
  </symbol>
  <symbol viewBox="0 0 10 16" id="ok">
    <path d="M5.00071 2.42035C5.96283 2.42035 6.74528 3.18736 6.74528 4.1305C6.74528 5.0708 5.96283 5.83781 5.00071 5.83781C4.03859 5.83781 3.25614 5.0708 3.25614 4.1305C3.25614 3.18736 4.03859 2.42035 5.00071 2.42035ZM5.00071 8.25816C7.32488 8.25816 9.21435 6.40597 9.21435 4.1305C9.21435 1.85219 7.32488 0 5.00071 0C2.67654 0 0.789971 1.85219 0.789971 4.1305C0.789971 6.40597 2.67654 8.25816 5.00071 8.25816ZM6.70471 11.6273C7.56251 11.4342 8.38843 11.1018 9.15059 10.6331C9.72729 10.278 9.90116 9.53083 9.53892 8.96551C9.17378 8.39735 8.41451 8.22691 7.83492 8.58485C6.11063 9.6473 3.89079 9.6473 2.16361 8.58485C1.58691 8.22691 0.824747 8.39735 0.462502 8.96551C0.100257 9.53083 0.274134 10.278 0.850829 10.6331C1.61299 11.1018 2.43891 11.4342 3.29671 11.6273L0.940665 13.934C0.459603 14.4056 0.459603 15.1726 0.940665 15.6442C1.18409 15.88 1.49707 15.9993 1.81295 15.9993C2.12883 15.9993 2.44471 15.88 2.68814 15.6442L5.00071 13.3772L7.31618 15.6442C7.79724 16.1186 8.5768 16.1186 9.06075 15.6442C9.54182 15.1726 9.54182 14.4056 9.06075 13.934L6.70471 11.6273Z" fill=""/>
  </symbol>
  <symbol viewBox="0 0 18 18" id="plus">
    <path d="M9 0V9M9 9V18M9 9H0M9 9H18" stroke=""/>
  </symbol>
  <symbol viewBox="0 0 18 2" id="minus">
    <path d="M0 1H9H18" stroke="#316DC2"/>
  </symbol>
  <symbol viewBox="0 0 20 10" id="burger">
    <path d="M1 1H19M1 5H19M1 9H19" stroke="" stroke-linecap="round"/>
  </symbol>
  <symbol viewBox="0 0 18 18" id="close">
    <path d="M1 17L9 9M9 9L17 1M9 9L17 17M9 9L1 1" stroke="" stroke-linecap="round" stroke-linejoin="round"/>
  </symbol>
  <symbol viewBox="0 0 20 20" id="modal-close">
    <path d="M1 19L10 10M10 10L19 1M10 10L19 19M10 10L1 1" stroke="#316DC2" stroke-linecap="round" stroke-linejoin="round"/>
  </symbol>
  <symbol viewBox="0 0 10 8" id="tick">
    <path d="M1 3.5L3.94737 7L9 1" stroke="" stroke-linecap="round" stroke-linejoin="round"/>
  </symbol>
</svg>
